<svg width="24" height="24" viewBox="0 0 24 24" fill="none" xmlns="http://www.w3.org/2000/svg">
<path d="M20.47 2.00014H3.53C3.33958 1.9975 3.1505 2.03239 2.97356 2.10282C2.79663 2.17326 2.6353 2.27786 2.4988 2.41065C2.36229 2.54344 2.25328 2.70182 2.17799 2.87675C2.1027 3.05167 2.06261 3.23972 2.06 3.43014V20.5701C2.06261 20.7606 2.1027 20.9486 2.17799 21.1235C2.25328 21.2985 2.36229 21.4568 2.4988 21.5896C2.6353 21.7224 2.79663 21.827 2.97356 21.8975C3.1505 21.9679 3.33958 22.0028 3.53 22.0001H20.47C20.6604 22.0028 20.8495 21.9679 21.0264 21.8975C21.2034 21.827 21.3647 21.7224 21.5012 21.5896C21.6377 21.4568 21.7467 21.2985 21.822 21.1235C21.8973 20.9486 21.9374 20.7606 21.94 20.5701V3.43014C21.9374 3.23972 21.8973 3.05167 21.822 2.87675C21.7467 2.70182 21.6377 2.54344 21.5012 2.41065C21.3647 2.27786 21.2034 2.17326 21.0264 2.10282C20.8495 2.03239 20.6604 1.9975 20.47 2.00014V2.00014ZM8.09 18.7401H5.09V9.74014H8.09V18.7401ZM6.59 8.48014C6.17626 8.48014 5.77947 8.31578 5.48691 8.02323C5.19435 7.73067 5.03 7.33388 5.03 6.92014C5.03 6.5064 5.19435 6.10961 5.48691 5.81705C5.77947 5.5245 6.17626 5.36014 6.59 5.36014C6.80969 5.33522 7.03217 5.35699 7.24287 5.42402C7.45357 5.49105 7.64774 5.60183 7.81265 5.7491C7.97757 5.89637 8.10952 6.07682 8.19987 6.27862C8.29021 6.48043 8.33692 6.69904 8.33692 6.92014C8.33692 7.14124 8.29021 7.35985 8.19987 7.56166C8.10952 7.76346 7.97757 7.94391 7.81265 8.09118C7.64774 8.23845 7.45357 8.34923 7.24287 8.41626C7.03217 8.48329 6.80969 8.50505 6.59 8.48014V8.48014ZM18.91 18.7401H15.91V13.9101C15.91 12.7001 15.48 11.9101 14.39 11.9101C14.0527 11.9126 13.7242 12.0184 13.4488 12.2133C13.1735 12.4082 12.9645 12.6828 12.85 13.0001C12.7717 13.2352 12.7378 13.4827 12.75 13.7301V18.7301H9.75C9.75 18.7301 9.75 10.5501 9.75 9.73014H12.75V11.0001C13.0225 10.5272 13.4189 10.1377 13.8964 9.87334C14.374 9.60902 14.9146 9.47999 15.46 9.50014C17.46 9.50014 18.91 10.7901 18.91 13.5601V18.7401Z" fill="#783D6B"/>
</svg>
